<?xml version="1.0" encoding="utf-8"?>
<!-- Generator: Adobe Illustrator 19.0.0, SVG Export Plug-In . SVG Version: 6.00 Build 0)  -->
<svg version="1.1" id="Layer_1" xmlns="http://www.w3.org/2000/svg" xmlns:xlink="http://www.w3.org/1999/xlink" x="0px" y="0px"
	 width="257px" height="29px" viewBox="0 0 257 29" enable-background="new 0 0 257 29" xml:space="preserve">
<g id="XMLID_1_">
</g>
<g id="XMLID_47_">
</g>
<g id="XMLID_48_">
</g>
<g id="XMLID_49_">
</g>
<g id="XMLID_50_">
</g>
<g id="XMLID_51_">
</g>
<g id="XMLID_52_">
</g>
<g id="XMLID_53_">
</g>
<g id="XMLID_54_">
</g>
<g id="XMLID_55_">
</g>
<g id="XMLID_56_">
</g>
<g id="XMLID_57_">
</g>
<g id="XMLID_58_">
</g>
<g id="XMLID_59_">
</g>
<g>
	<g>
		<path fill="#0F75BC" d="M22.2,29c-1.3,0-2.5-0.7-3.1-1.9l-5.7-10.2L9.5,10L8.1,7.3v21.6H3.5V3.7c0-1.7,1.1-3.1,2.7-3.5
			c1.6-0.4,3.3,0.3,4.1,1.8l3.3,5.8l3.8,6.9l3.9,7V0.1h4.6v25.3c0,1.7-1.1,3.1-2.7,3.5C22.8,28.9,22.5,29,22.2,29z"/>
	</g>
	<g>
		<path fill="#0F75BC" d="M73.8,29.1C73.7,29.1,73.7,29.1,73.8,29.1c-1.4,0-2.5-0.8-2.9-2.1l-3.5-10.5l-1.3-4v16.4h-4.6V3
			c0-1.5,1.1-2.7,2.5-3c1.5-0.2,2.9,0.6,3.4,2l2.1,6.1l2.3,6.9l2.1,6.2l0.6-1.8l2.3-6.9L80.2,2c0.5-1.4,1.9-2.3,3.4-2
			C85,0.2,86,1.5,86,3v26h-4.6V12.5L81,14l-2.3,6.9L76.6,27C76.2,28.2,75.1,29.1,73.8,29.1z"/>
	</g>
	<path fill="#0F75BC" d="M52.8,14.5c1.7-1.6,2.7-3.9,2.6-6.4c-0.2-4.5-4-8.1-8.5-8.1h-9.4C35,0,33,2,33,4.6v19.8
		c0,2.5,2,4.5,4.5,4.5l9.6,0.1c4.6,0,8.4-3.8,8.4-8.4C55.4,18.2,54.4,16,52.8,14.5z M42.6,16.7H47c2.1,0,3.9,1.8,3.8,3.9
		c-0.1,2-1.8,3.6-3.9,3.6h-9.5l0.1-19.7H47c2.1,0,3.9,1.8,3.8,3.9c-0.1,2-1.8,3.6-3.9,3.6h-4.4c-1.3,0-2.3,1-2.3,2.3
		C40.3,15.7,41.3,16.7,42.6,16.7z"/>
	<g>
		<path fill="#666666" d="M105.3,13.2v6.3c0,0.4-0.3,0.7-0.7,0.7h-0.8c-0.4,0-0.7-0.3-0.7-0.7v-6.3c0-0.4-0.3-0.7-0.7-0.7h-1.3
			c-0.4,0-0.7-0.3-0.7-0.7v-0.5c0-0.4,0.3-0.7,0.7-0.7h6.1c0.4,0,0.7,0.3,0.7,0.7v0.5c0,0.4-0.3,0.7-0.7,0.7h-1.3
			C105.6,12.5,105.3,12.8,105.3,13.2z"/>
		<path fill="#666666" d="M116.5,11.4v0.5c0,0.4-0.3,0.7-0.7,0.7h-3.3c-0.4,0-0.7,0.3-0.7,0.7v0.6c0,0.4,0.3,0.7,0.7,0.7h2.9
			c0.4,0,0.7,0.3,0.7,0.7v0.4c0,0.4-0.3,0.7-0.7,0.7h-2.9c-0.4,0-0.7,0.3-0.7,0.7v0.6c0,0.4,0.3,0.7,0.7,0.7h3.5
			c0.4,0,0.7,0.3,0.7,0.7v0.5c0,0.4-0.3,0.7-0.7,0.7h-5.6c-0.4,0-0.7-0.3-0.7-0.7v-8.1c0-0.4,0.3-0.7,0.7-0.7h5.5
			C116.2,10.7,116.5,11,116.5,11.4z"/>
		<path fill="#666666" d="M123.2,18.3c0.8,0,1.5-0.3,2.1-0.8c0.3-0.2,0.7-0.2,0.9,0l0.4,0.4c0.3,0.3,0.2,0.7,0,1
			c-1,0.9-2.1,1.3-3.3,1.3c-1.5,0-2.7-0.5-3.6-1.4c-0.9-0.9-1.4-2.1-1.4-3.5c0-1.4,0.5-2.6,1.4-3.5c1-0.9,2.1-1.4,3.5-1.4
			c1.3,0,2.5,0.4,3.4,1.3c0.3,0.2,0.3,0.7,0,0.9l-0.4,0.5c-0.2,0.3-0.7,0.3-1,0.1c-0.6-0.5-1.2-0.7-2-0.7c-0.8,0-1.5,0.3-2,0.8
			c-0.6,0.5-0.8,1.2-0.8,2.1c0,0.9,0.3,1.6,0.8,2.1C121.8,18,122.4,18.3,123.2,18.3z"/>
		<path fill="#666666" d="M135.6,10.7h0.8c0.4,0,0.7,0.3,0.7,0.7v8.1c0,0.4-0.3,0.7-0.7,0.7h-0.8c-0.4,0-0.7-0.3-0.7-0.7v-2.4
			c0-0.4-0.3-0.7-0.7-0.7h-2.4c-0.4,0-0.7,0.3-0.7,0.7v2.4c0,0.4-0.3,0.7-0.7,0.7h-0.8c-0.4,0-0.7-0.3-0.7-0.7v-8.1
			c0-0.4,0.3-0.7,0.7-0.7h0.8c0.4,0,0.7,0.3,0.7,0.7V14c0,0.4,0.3,0.7,0.7,0.7h2.4c0.4,0,0.7-0.3,0.7-0.7v-2.6
			C134.9,11,135.2,10.7,135.6,10.7z"/>
		<path fill="#666666" d="M147,10.7h0.8c0.4,0,0.7,0.3,0.7,0.7v8.1c0,0.4-0.3,0.7-0.7,0.7h-1.1c-0.2,0-0.4-0.1-0.5-0.3l-3.1-4
			c-0.4-0.5-1.2-0.2-1.2,0.4v3.2c0,0.4-0.3,0.7-0.7,0.7h-0.8c-0.4,0-0.7-0.3-0.7-0.7v-8.1c0-0.4,0.3-0.7,0.7-0.7h1
			c0.2,0,0.4,0.1,0.5,0.3l3.2,4.2c0.4,0.5,1.2,0.2,1.2-0.4v-3.4C146.4,11,146.7,10.7,147,10.7z"/>
		<path fill="#666666" d="M159.2,18.8c-1,0.9-2.1,1.4-3.5,1.4c-1.4,0-2.6-0.5-3.5-1.4c-1-0.9-1.4-2.1-1.4-3.5c0-1.4,0.5-2.5,1.4-3.5
			c1-0.9,2.1-1.4,3.5-1.4c1.4,0,2.6,0.5,3.5,1.4c1,0.9,1.4,2.1,1.4,3.5C160.6,16.8,160.1,17.9,159.2,18.8z M158.5,15.4
			c0-0.8-0.3-1.6-0.8-2.2c-0.5-0.6-1.2-0.9-2-0.9c-0.8,0-1.5,0.3-2,0.9c-0.5,0.6-0.8,1.3-0.8,2.2c0,0.8,0.3,1.6,0.8,2.1
			c0.5,0.6,1.2,0.9,2,0.9c0.8,0,1.5-0.3,2-0.9C158.2,16.9,158.5,16.2,158.5,15.4z"/>
		<path fill="#666666" d="M162.8,19.5v-8.1c0-0.4,0.3-0.7,0.7-0.7h0.8c0.4,0,0.7,0.3,0.7,0.7v6.2c0,0.4,0.3,0.7,0.7,0.7h2.7
			c0.4,0,0.7,0.3,0.7,0.7v0.5c0,0.4-0.3,0.7-0.7,0.7h-4.8C163.1,20.1,162.8,19.8,162.8,19.5z"/>
		<path fill="#666666" d="M178.5,18.8c-1,0.9-2.1,1.4-3.5,1.4c-1.4,0-2.6-0.5-3.5-1.4c-1-0.9-1.4-2.1-1.4-3.5c0-1.4,0.5-2.5,1.4-3.5
			c1-0.9,2.1-1.4,3.5-1.4c1.4,0,2.6,0.5,3.5,1.4c1,0.9,1.4,2.1,1.4,3.5C179.9,16.8,179.5,17.9,178.5,18.8z M177.8,15.4
			c0-0.8-0.3-1.6-0.8-2.2c-0.5-0.6-1.2-0.9-2-0.9c-0.8,0-1.5,0.3-2,0.9c-0.5,0.6-0.8,1.3-0.8,2.2c0,0.8,0.3,1.6,0.8,2.1
			c0.5,0.6,1.2,0.9,2,0.9c0.8,0,1.5-0.3,2-0.9C177.5,16.9,177.8,16.2,177.8,15.4z"/>
		<path fill="#666666" d="M188.9,15.3h0.8c0.4,0,0.7,0.3,0.7,0.7v2.4c0,0.2-0.1,0.3-0.2,0.5c-0.9,0.9-2.2,1.4-3.7,1.4
			c-1.4,0-2.5-0.5-3.5-1.4c-0.9-0.9-1.4-2.1-1.4-3.5c0-1.4,0.5-2.6,1.4-3.5c1-0.9,2.1-1.4,3.5-1.4c1.1,0,2.1,0.3,3,0.9
			c0.3,0.2,0.4,0.6,0.2,0.9l-0.3,0.5c-0.2,0.3-0.6,0.4-0.9,0.2c-0.2-0.2-0.4-0.3-0.6-0.3c-0.4-0.1-0.7-0.2-1.2-0.2
			c-0.8,0-1.5,0.3-2,0.8c-0.5,0.5-0.8,1.3-0.8,2.2c0,0.9,0.3,1.6,0.8,2.1c0.5,0.5,1.2,0.8,1.9,0.8c0.5,0,1-0.1,1.4-0.2
			c0.3-0.1,0.4-0.4,0.4-0.6V16C188.2,15.6,188.6,15.3,188.9,15.3z"/>
		<path fill="#666666" d="M193.5,10.7h0.8c0.4,0,0.7,0.3,0.7,0.7v8.1c0,0.4-0.3,0.7-0.7,0.7h-0.8c-0.4,0-0.7-0.3-0.7-0.7v-8.1
			C192.8,11,193.1,10.7,193.5,10.7z"/>
		<path fill="#666666" d="M204.4,11.4v0.5c0,0.4-0.3,0.7-0.7,0.7h-3.3c-0.4,0-0.7,0.3-0.7,0.7v0.6c0,0.4,0.3,0.7,0.7,0.7h2.9
			c0.4,0,0.7,0.3,0.7,0.7v0.4c0,0.4-0.3,0.7-0.7,0.7h-2.9c-0.4,0-0.7,0.3-0.7,0.7v0.6c0,0.4,0.3,0.7,0.7,0.7h3.5
			c0.4,0,0.7,0.3,0.7,0.7v0.5c0,0.4-0.3,0.7-0.7,0.7h-5.6c-0.4,0-0.7-0.3-0.7-0.7v-8.1c0-0.4,0.3-0.7,0.7-0.7h5.5
			C204.1,10.7,204.4,11,204.4,11.4z"/>
		<path fill="#666666" d="M209.1,12.6c-0.2,0.2-0.3,0.4-0.3,0.7c0,0.3,0.1,0.5,0.4,0.7c0.2,0.2,0.8,0.4,1.7,0.6
			c0.9,0.2,1.6,0.6,2.1,1c0.5,0.4,0.7,1.1,0.7,1.9c0,0.8-0.3,1.5-1,2.1c-0.6,0.5-1.5,0.8-2.5,0.8c-1.3,0-2.4-0.4-3.5-1.2
			c-0.3-0.2-0.3-0.7-0.1-1l0.4-0.5c0.2-0.3,0.6-0.3,0.9-0.1c0.8,0.6,1.6,0.9,2.3,0.9c0.4,0,0.7-0.1,0.9-0.2c0.2-0.2,0.3-0.4,0.3-0.7
			c0-0.3-0.1-0.5-0.4-0.7c-0.2-0.2-0.7-0.3-1.4-0.5c-1.1-0.3-1.9-0.6-2.4-1c-0.5-0.4-0.8-1.1-0.8-2c0-0.9,0.3-1.6,1-2.1
			c0.6-0.5,1.4-0.7,2.4-0.7c0.6,0,1.3,0.1,1.9,0.3c0.4,0.1,0.7,0.3,1.1,0.5c0.3,0.2,0.4,0.6,0.2,1l-0.3,0.4
			c-0.2,0.3-0.6,0.4-0.9,0.2c-0.7-0.4-1.3-0.6-2-0.6C209.6,12.3,209.3,12.4,209.1,12.6z"/>
		<path fill="#666666" d="M216,20.4c0.1-0.2,0-0.5-0.1-0.6c-0.2-0.2-0.2-0.4-0.2-0.7c0-0.4,0.1-0.7,0.4-0.9c0.2-0.2,0.5-0.3,0.9-0.3
			c0.3,0,0.6,0.1,0.9,0.3c0.2,0.2,0.4,0.5,0.4,0.8c0,0.3-0.1,0.7-0.4,1.1l-0.6,1.1c-0.1,0.2-0.3,0.3-0.6,0.3l0,0
			c-0.5,0-0.8-0.5-0.6-0.9L216,20.4z"/>
		<path fill="#666666" d="M225.4,10.7h0.8c0.4,0,0.7,0.3,0.7,0.7v8.1c0,0.4-0.3,0.7-0.7,0.7h-0.8c-0.4,0-0.7-0.3-0.7-0.7v-8.1
			C224.7,11,225,10.7,225.4,10.7z"/>
		<path fill="#666666" d="M236.9,10.7h0.8c0.4,0,0.7,0.3,0.7,0.7v8.1c0,0.4-0.3,0.7-0.7,0.7h-1.1c-0.2,0-0.4-0.1-0.5-0.3l-3.1-4
			c-0.4-0.5-1.2-0.2-1.2,0.4v3.2c0,0.4-0.3,0.7-0.7,0.7h-0.8c-0.4,0-0.7-0.3-0.7-0.7v-8.1c0-0.4,0.3-0.7,0.7-0.7h1
			c0.2,0,0.4,0.1,0.5,0.3l3.2,4.2c0.4,0.5,1.2,0.2,1.2-0.4v-3.4C236.2,11,236.5,10.7,236.9,10.7z"/>
		<path fill="#666666" d="M245.4,18.3c0.8,0,1.5-0.3,2.1-0.8c0.3-0.2,0.7-0.2,0.9,0l0.4,0.4c0.3,0.3,0.2,0.7,0,1
			c-1,0.9-2.1,1.3-3.3,1.3c-1.5,0-2.7-0.5-3.6-1.4c-0.9-0.9-1.4-2.1-1.4-3.5c0-1.4,0.5-2.6,1.4-3.5c1-0.9,2.1-1.4,3.5-1.4
			c1.3,0,2.5,0.4,3.4,1.3c0.3,0.2,0.3,0.7,0,0.9l-0.4,0.5c-0.2,0.3-0.7,0.3-1,0.1c-0.6-0.5-1.2-0.7-2-0.7c-0.8,0-1.5,0.3-2,0.8
			c-0.6,0.5-0.8,1.2-0.8,2.1c0,0.9,0.3,1.6,0.8,2.1C244,18,244.6,18.3,245.4,18.3z"/>
		<path fill="#666666" d="M251.5,19.9c-0.2-0.2-0.3-0.5-0.3-0.8c0-0.3,0.1-0.6,0.3-0.8c0.2-0.2,0.5-0.3,0.8-0.3s0.6,0.1,0.8,0.3
			c0.2,0.2,0.3,0.5,0.3,0.8c0,0.3-0.1,0.6-0.3,0.8c-0.2,0.2-0.5,0.3-0.8,0.3S251.7,20.1,251.5,19.9z"/>
	</g>
</g>
</svg>
